<?xml version="1.0" encoding="UTF-8" standalone="no"?>
<!-- Created with Inkscape (http://www.inkscape.org/) -->

<svg
   width="400"
   height="200"
   viewBox="0 0 105.83333 52.916666"
   version="1.1"
   id="svg1"
   xml:space="preserve"
   inkscape:export-filename="museum_light.png"
   inkscape:export-xdpi="96"
   inkscape:export-ydpi="96"
   inkscape:version="1.3.2 (091e20ef0f, 2023-11-25, custom)"
   sodipodi:docname="museum.svg"
   xmlns:inkscape="http://www.inkscape.org/namespaces/inkscape"
   xmlns:sodipodi="http://sodipodi.sourceforge.net/DTD/sodipodi-0.dtd"
   xmlns="http://www.w3.org/2000/svg"
   xmlns:svg="http://www.w3.org/2000/svg"><sodipodi:namedview
     id="namedview1"
     pagecolor="#ffff00"
     bordercolor="#000000"
     borderopacity="0.25"
     inkscape:showpageshadow="2"
     inkscape:pageopacity="0.0"
     inkscape:pagecheckerboard="0"
     inkscape:deskcolor="#d1d1d1"
     inkscape:document-units="mm"
     inkscape:zoom="1.0132889"
     inkscape:cx="318.27054"
     inkscape:cy="33.554103"
     inkscape:window-width="1920"
     inkscape:window-height="1131"
     inkscape:window-x="0"
     inkscape:window-y="0"
     inkscape:window-maximized="1"
     inkscape:current-layer="layer1" /><defs
     id="defs1"><filter
       style="color-interpolation-filters:sRGB;"
       inkscape:label="Invert"
       id="filter1"
       x="0"
       y="0"
       width="1"
       height="1"><feColorMatrix
         values="1 0 0 0 0 0 1 0 0 0 0 0 1 0 0 -0.21 -0.72 -0.07 2 0 "
         result="fbSourceGraphic"
         id="feColorMatrix1" /><feColorMatrix
         result="fbSourceGraphicAlpha"
         in="fbSourceGraphic"
         values="0 0 0 -1 0 0 0 0 -1 0 0 0 0 -1 0 0 0 0 1 0"
         id="feColorMatrix2" /><feColorMatrix
         id="feColorMatrix3"
         values="1 0 0 0 0 0 1 0 0 0 0 0 1 0 0 -0.21 -0.72 -0.07 2 0 "
         result="fbSourceGraphic"
         in="fbSourceGraphic" /><feColorMatrix
         result="fbSourceGraphicAlpha"
         in="fbSourceGraphic"
         values="0 0 0 -1 0 0 0 0 -1 0 0 0 0 -1 0 0 0 0 1 0"
         id="feColorMatrix4" /><feColorMatrix
         id="feColorMatrix5"
         values="1 0 0 0 0 0 1 0 0 0 0 0 1 0 0 -0.21 -0.72 -0.07 2 0 "
         result="color2"
         in="fbSourceGraphic" /></filter><style
       id="style1">
      .cls-1 {
        fill: #FFFFFF;
      }
    </style></defs><g
     inkscape:label="Layer 1"
     inkscape:groupmode="layer"
     id="layer1"><g
       id="Groupe_321"
       data-name="Groupe 321"
       transform="matrix(0.42206763,0,0,0.42206763,22.802141,9.5779049)"
       style="stroke-width:0.626874;fill:#000000;fill-opacity:1"><g
         id="Groupe_320"
         data-name="Groupe 320"
         style="stroke-width:0.626874;fill:#000000;fill-opacity:1"><path
           id="Tracé_257"
           data-name="Tracé 257"
           class="cls-1"
           d="M 17.2,8.6 V 33.3 H 12.5 V 16.7 L 10.6,33.3 H 7.3 L 5.4,17 V 33.3 H 0.6 V 8.6 h 7 c 0.2,1.5 0.4,3.2 0.6,5.2 L 9,20.1 10.2,8.6 Z"
           style="stroke-width:0.626874;fill:#000000;fill-opacity:1" /><path
           id="Tracé_258"
           data-name="Tracé 258"
           class="cls-1"
           d="M 42.2,8.6 V 25.1 A 29.888,29.888 0 0 1 42,29 a 5.518,5.518 0 0 1 -0.9,2.3 4.939,4.939 0 0 1 -2,1.8 6.527,6.527 0 0 1 -2.9,0.6 A 7.245,7.245 0 0 1 32.9,33 4.887,4.887 0 0 1 30.8,31.1 5.659,5.659 0 0 1 30,28.6 C 29.9,27.7 29.9,25.9 29.9,23.1 V 8.6 h 5.4 v 18.5 a 5.043,5.043 0 0 0 0.2,2.1 0.548,0.548 0 0 0 0.6,0.4 0.666,0.666 0 0 0 0.7,-0.5 9.211,9.211 0 0 0 0.2,-2.3 V 8.6 Z"
           style="stroke-width:0.626874;fill:#000000;fill-opacity:1" /><path
           id="Tracé_259"
           data-name="Tracé 259"
           class="cls-1"
           d="m 66.1,16 h -5 v -1.8 a 4.232,4.232 0 0 0 -0.2,-1.6 0.675,0.675 0 0 0 -0.6,-0.4 0.752,0.752 0 0 0 -0.7,0.5 2.649,2.649 0 0 0 -0.3,1.4 4.178,4.178 0 0 0 0.3,1.8 5.149,5.149 0 0 0 1.5,1.5 q 3.6,2.55 4.5,4.2 a 11.457,11.457 0 0 1 0.9,5.3 11.817,11.817 0 0 1 -0.5,3.9 4.437,4.437 0 0 1 -2,2.1 6.483,6.483 0 0 1 -3.5,0.8 6.414,6.414 0 0 1 -3.7,-1 4.436,4.436 0 0 1 -2,-2.5 15.275,15.275 0 0 1 -0.5,-4.3 v -1.6 h 5 v 3 a 6.247,6.247 0 0 0 0.2,1.8 c 0.1,0.3 0.4,0.4 0.8,0.4 a 0.891,0.891 0 0 0 0.8,-0.5 2.81,2.81 0 0 0 0.3,-1.5 5.217,5.217 0 0 0 -0.5,-2.8 16.458,16.458 0 0 0 -2.5,-2.2 c -1.3,-1.1 -2.2,-1.8 -2.7,-2.3 a 6.186,6.186 0 0 1 -1.1,-2 9.6,9.6 0 0 1 -0.4,-3.2 10.064,10.064 0 0 1 0.6,-4.1 3.9,3.9 0 0 1 2,-2 6.711,6.711 0 0 1 3.3,-0.7 7.968,7.968 0 0 1 3.6,0.8 4.3,4.3 0 0 1 2,2 13.08,13.08 0 0 1 0.5,4.2 V 16 Z"
           style="stroke-width:0.626874;fill:#000000;fill-opacity:1" /><path
           id="Tracé_260"
           data-name="Tracé 260"
           class="cls-1"
           d="m 78.7,8.6 h 9 v 4.9 h -3.6 v 4.7 h 3.4 v 4.7 h -3.4 v 5.4 h 4 v 4.9 h -9.4 z"
           style="stroke-width:0.626874;fill:#000000;fill-opacity:1" /><path
           id="Tracé_261"
           data-name="Tracé 261"
           class="cls-1"
           d="m 112.4,8.6 v 16.5 a 29.889,29.889 0 0 1 -0.2,3.9 5.518,5.518 0 0 1 -0.9,2.3 4.939,4.939 0 0 1 -2,1.8 6.527,6.527 0 0 1 -2.9,0.6 7.246,7.246 0 0 1 -3.3,-0.7 4.887,4.887 0 0 1 -2.1,-1.9 5.659,5.659 0 0 1 -0.8,-2.5 c -0.1,-0.9 -0.1,-2.7 -0.1,-5.5 V 8.6 h 5.4 v 18.5 a 5.043,5.043 0 0 0 0.2,2.1 0.548,0.548 0 0 0 0.6,0.4 0.666,0.666 0 0 0 0.7,-0.5 9.211,9.211 0 0 0 0.2,-2.3 V 8.6 Z"
           style="stroke-width:0.626874;fill:#000000;fill-opacity:1" /><path
           id="Tracé_262"
           data-name="Tracé 262"
           class="cls-1"
           d="m 141.6,8.6 v 24.7 h -4.7 V 16.7 L 135,33.2 h -3.3 l -2,-16.3 V 33.2 H 125 V 8.6 h 7 c 0.2,1.5 0.4,3.2 0.6,5.2 l 0.8,6.3 1.2,-11.5 z"
           style="stroke-width:0.626874;fill:#000000;fill-opacity:1" /><path
           id="Tracé_263"
           data-name="Tracé 263"
           class="cls-1"
           d="m 0,38.3 h 1.7 a 9.471,9.471 0 0 1 2.2,0.2 1.456,1.456 0 0 1 0.9,0.6 1.884,1.884 0 0 1 0.2,0.8 c 0,0.3 0.1,0.9 0.1,1.9 v 3.5 A 7.67,7.67 0 0 1 5,47.1 1.612,1.612 0 0 1 4.6,47.8 L 4,48.1 A 4.121,4.121 0 0 1 2.8,48.2 H 0 Z M 2.2,40 v 6.5 A 0.845,0.845 0 0 0 2.8,46.3 3.137,3.137 0 0 0 2.9,45.1 V 40.4 C 2.9,40.3 2.8,40.2 2.7,40.1 A 0.749,0.749 0 0 0 2.2,40 Z"
           style="stroke-width:0.626874;fill:#000000;fill-opacity:1" /><path
           id="Tracé_264"
           data-name="Tracé 264"
           class="cls-1"
           d="M 8.6,41.5 8.3,39.8 v -1.5 h 1.6 v 1.5 l -0.2,1.7 z"
           style="stroke-width:0.626874;fill:#000000;fill-opacity:1" /><path
           id="Tracé_265"
           data-name="Tracé 265"
           class="cls-1"
           d="m 18.2,38.3 v 9.9 H 16 V 44 h -0.7 v 4.2 h -2.2 v -9.9 h 2.2 v 3.5 H 16 v -3.5 z"
           style="stroke-width:0.626874;fill:#000000;fill-opacity:1" /><path
           id="Tracé_266"
           data-name="Tracé 266"
           class="cls-1"
           d="m 23.9,38.3 v 9.9 h -2.2 v -9.9 z"
           style="stroke-width:0.626874;fill:#000000;fill-opacity:1" /><path
           id="Tracé_267"
           data-name="Tracé 267"
           class="cls-1"
           d="m 32.1,41.3 h -2 v -0.7 c 0,-0.3 0,-0.6 -0.1,-0.6 -0.1,-0.1 -0.1,-0.1 -0.3,-0.1 -0.1,0 -0.2,0.1 -0.3,0.2 -0.1,0.1 -0.1,0.3 -0.1,0.6 0,0.3 0,0.6 0.1,0.7 A 1.7,1.7 0 0 0 30,42 c 1,0.7 1.6,1.2 1.8,1.7 a 3.694,3.694 0 0 1 0.4,2.1 6.267,6.267 0 0 1 -0.2,1.6 1.549,1.549 0 0 1 -0.8,0.8 3.194,3.194 0 0 1 -1.4,0.3 2.41,2.41 0 0 1 -1.5,-0.4 1.891,1.891 0 0 1 -0.8,-1 7.18,7.18 0 0 1 -0.2,-1.7 v -0.6 h 2 V 46 c 0,0.4 0,0.6 0.1,0.7 0.1,0.1 0.2,0.2 0.3,0.2 0.1,0 0.3,-0.1 0.3,-0.2 0.1,-0.1 0.1,-0.3 0.1,-0.6 A 2.037,2.037 0 0 0 29.9,45 4.805,4.805 0 0 0 28.9,44.1 C 28.4,43.7 28,43.4 27.8,43.2 a 2.01,2.01 0 0 1 -0.4,-0.8 4.438,4.438 0 0 1 -0.2,-1.3 6.525,6.525 0 0 1 0.2,-1.7 2.047,2.047 0 0 1 0.8,-0.8 2.768,2.768 0 0 1 1.3,-0.3 3.339,3.339 0 0 1 1.5,0.3 1.549,1.549 0 0 1 0.8,0.8 5.945,5.945 0 0 1 0.2,1.7 v 0.2 z"
           style="stroke-width:0.626874;fill:#000000;fill-opacity:1" /><path
           id="Tracé_268"
           data-name="Tracé 268"
           class="cls-1"
           d="m 40,38.3 v 2 h -1.3 v 7.9 h -2.2 v -7.9 h -1.3 v -2 z"
           style="stroke-width:0.626874;fill:#000000;fill-opacity:1" /><path
           id="Tracé_269"
           data-name="Tracé 269"
           class="cls-1"
           d="m 48.1,44.1 a 10.983,10.983 0 0 1 -0.1,2.1 2.1,2.1 0 0 1 -0.4,1.1 2.361,2.361 0 0 1 -0.9,0.8 2.768,2.768 0 0 1 -1.3,0.3 2.133,2.133 0 0 1 -1.2,-0.3 1.765,1.765 0 0 1 -0.9,-0.8 2.1,2.1 0 0 1 -0.4,-1.1 c 0,-0.4 -0.1,-1.1 -0.1,-2.1 v -1.7 a 10.983,10.983 0 0 1 0.1,-2.1 2.1,2.1 0 0 1 0.4,-1.1 2.361,2.361 0 0 1 0.9,-0.8 2.768,2.768 0 0 1 1.3,-0.3 2.133,2.133 0 0 1 1.2,0.3 1.765,1.765 0 0 1 0.9,0.8 3.582,3.582 0 0 1 0.4,1.1 c 0,0.4 0.1,1.1 0.1,2.1 z m -2.2,-3.2 c 0,-0.5 0,-0.8 -0.1,-0.9 0,-0.1 -0.1,-0.2 -0.3,-0.2 -0.1,0 -0.2,0.1 -0.3,0.2 -0.1,0.1 -0.1,0.4 -0.1,0.9 v 4.6 a 2.815,2.815 0 0 0 0.1,1.1 c 0,0.1 0.1,0.2 0.3,0.2 0.1,0 0.2,-0.1 0.3,-0.2 a 10.416,10.416 0 0 0 0.1,-1.1 z"
           style="stroke-width:0.626874;fill:#000000;fill-opacity:1" /><path
           id="Tracé_270"
           data-name="Tracé 270"
           class="cls-1"
           d="m 53.8,38.3 v 9.9 h -2.2 v -9.9 z"
           style="stroke-width:0.626874;fill:#000000;fill-opacity:1" /><path
           id="Tracé_271"
           data-name="Tracé 271"
           class="cls-1"
           d="m 57.3,38.3 h 1.6 a 10.983,10.983 0 0 1 2.1,0.1 1.272,1.272 0 0 1 0.9,0.7 4.178,4.178 0 0 1 0.3,1.8 5.136,5.136 0 0 1 -0.2,1.6 c -0.2,0.3 -0.5,0.4 -1,0.5 a 1.934,1.934 0 0 1 0.9,0.5 c 0.2,0.2 0.2,0.4 0.3,0.6 0,0.2 0.1,0.7 0.1,1.5 v 2.6 h -2 v -3.3 a 2.245,2.245 0 0 0 -0.1,-1 0.845,0.845 0 0 0 -0.6,-0.2 v 4.5 h -2.2 v -9.9 z m 2.2,1.7 v 2.2 A 0.749,0.749 0 0 0 60,42.1 c 0.1,-0.1 0.2,-0.3 0.2,-0.8 v -0.5 c 0,-0.3 0,-0.5 -0.1,-0.6 A 1.421,1.421 0 0 0 59.5,40 Z"
           style="stroke-width:0.626874;fill:#000000;fill-opacity:1" /><path
           id="Tracé_272"
           data-name="Tracé 272"
           class="cls-1"
           d="m 65.7,38.3 h 3.7 v 2 h -1.5 v 1.9 h 1.4 V 44 h -1.4 v 2.2 h 1.6 v 2 h -3.8 z"
           style="stroke-width:0.626874;fill:#000000;fill-opacity:1" /><path
           id="Tracé_273"
           data-name="Tracé 273"
           class="cls-1"
           d="m 82.2,38.3 v 9.9 h -1.9 l -1.1,-4.5 v 4.5 h -1.8 v -9.9 h 1.8 l 1.2,4.4 v -4.4 z"
           style="stroke-width:0.626874;fill:#000000;fill-opacity:1" /><path
           id="Tracé_274"
           data-name="Tracé 274"
           class="cls-1"
           d="m 89.5,38.3 1.3,9.9 h -2.3 l -0.1,-1.8 h -0.8 l -0.1,1.8 h -2.3 l 1.1,-9.9 z m -1.2,6.4 Q 88.15,43.05 88,40.5 c -0.2,1.9 -0.4,3.3 -0.4,4.2 z"
           style="stroke-width:0.626874;fill:#000000;fill-opacity:1" /><path
           id="Tracé_275"
           data-name="Tracé 275"
           class="cls-1"
           d="m 97.6,38.3 v 2 h -1.3 v 7.9 h -2.2 v -7.9 h -1.3 v -2 z"
           style="stroke-width:0.626874;fill:#000000;fill-opacity:1" /><path
           id="Tracé_276"
           data-name="Tracé 276"
           class="cls-1"
           d="m 105.7,38.3 v 6.6 a 6.66,6.66 0 0 1 -0.1,1.6 1.8,1.8 0 0 1 -0.4,0.9 1.779,1.779 0 0 1 -0.8,0.7 2.165,2.165 0 0 1 -1.2,0.2 2.5,2.5 0 0 1 -1.3,-0.3 1.765,1.765 0 0 1 -0.9,-0.8 1.689,1.689 0 0 1 -0.3,-1 c 0,-0.3 -0.1,-1.1 -0.1,-2.2 v -5.8 h 2.2 v 7.4 c 0,0.4 0,0.7 0.1,0.8 a 0.215,0.215 0 0 0 0.2,0.2 c 0.1,0 0.2,-0.1 0.3,-0.2 a 5.527,5.527 0 0 0 0.1,-0.9 v -7.3 h 2.2 z"
           style="stroke-width:0.626874;fill:#000000;fill-opacity:1" /><path
           id="Tracé_277"
           data-name="Tracé 277"
           class="cls-1"
           d="m 109.2,38.3 h 1.6 a 10.983,10.983 0 0 1 2.1,0.1 1.272,1.272 0 0 1 0.9,0.7 4.178,4.178 0 0 1 0.3,1.8 5.136,5.136 0 0 1 -0.2,1.6 c -0.2,0.3 -0.5,0.4 -1,0.5 a 1.934,1.934 0 0 1 0.9,0.5 c 0.2,0.2 0.2,0.4 0.3,0.6 0,0.2 0.1,0.7 0.1,1.5 v 2.6 h -2 v -3.3 a 2.245,2.245 0 0 0 -0.1,-1 0.845,0.845 0 0 0 -0.6,-0.2 v 4.5 h -2.2 v -9.9 z m 2.2,1.7 v 2.2 a 0.749,0.749 0 0 0 0.5,-0.1 c 0.1,-0.1 0.2,-0.3 0.2,-0.8 v -0.5 c 0,-0.3 0,-0.5 -0.1,-0.6 A 1.421,1.421 0 0 0 111.4,40 Z"
           style="stroke-width:0.626874;fill:#000000;fill-opacity:1" /><path
           id="Tracé_278"
           data-name="Tracé 278"
           class="cls-1"
           d="m 117.5,38.3 h 3.7 v 2 h -1.5 v 1.9 h 1.4 V 44 h -1.4 v 2.2 h 1.6 v 2 h -3.8 z"
           style="stroke-width:0.626874;fill:#000000;fill-opacity:1" /><path
           id="Tracé_279"
           data-name="Tracé 279"
           class="cls-1"
           d="m 126.8,38.3 v 7.9 h 1.3 v 2 h -3.5 v -9.9 z"
           style="stroke-width:0.626874;fill:#000000;fill-opacity:1" /><path
           id="Tracé_280"
           data-name="Tracé 280"
           class="cls-1"
           d="m 133.5,38.3 v 7.9 h 1.3 v 2 h -3.5 v -9.9 z"
           style="stroke-width:0.626874;fill:#000000;fill-opacity:1" /><path
           id="Tracé_281"
           data-name="Tracé 281"
           class="cls-1"
           d="m 138,38.3 h 3.7 v 2 h -1.5 v 1.9 h 1.4 V 44 h -1.4 v 2.2 h 1.6 v 2 H 138 Z"
           style="stroke-width:0.626874;fill:#000000;fill-opacity:1" /><path
           id="Tracé_282"
           data-name="Tracé 282"
           class="cls-1"
           d="M 13,54.7 V 79.4 H 8.2 L 5.3,68.2 V 79.4 H 0.7 V 54.7 H 5.3 L 8.4,65.8 V 54.7 Z"
           style="stroke-width:0.626874;fill:#000000;fill-opacity:1" /><path
           id="Tracé_283"
           data-name="Tracé 283"
           class="cls-1"
           d="m 18.6,54.7 h 9.2 v 4.9 h -3.7 v 4.7 h 3.4 V 69 h -3.4 v 5.4 h 4 v 4.9 H 18.5 V 54.7 Z"
           style="stroke-width:0.626874;fill:#000000;fill-opacity:1" /><path
           id="Tracé_284"
           data-name="Tracé 284"
           class="cls-1"
           d="m 45.8,54.7 v 16.5 a 29.888,29.888 0 0 1 -0.2,3.9 5.518,5.518 0 0 1 -0.9,2.3 4.939,4.939 0 0 1 -2,1.8 6.679,6.679 0 0 1 -3,0.6 7.391,7.391 0 0 1 -3.4,-0.7 5.179,5.179 0 0 1 -2.2,-1.9 5.813,5.813 0 0 1 -0.9,-2.5 C 33.1,73.8 33.1,72 33.1,69.2 V 54.7 h 5.5 v 18.5 a 9.854,9.854 0 0 0 0.1,2.1 0.548,0.548 0 0 0 0.6,0.4 0.752,0.752 0 0 0 0.7,-0.5 11.661,11.661 0 0 0 0.1,-2.3 V 54.7 Z"
           style="stroke-width:0.626874;fill:#000000;fill-opacity:1" /><path
           id="Tracé_285"
           data-name="Tracé 285"
           class="cls-1"
           d="m 64.2,65.5 h -5.5 v -4.3 a 9.211,9.211 0 0 0 -0.2,-2.3 0.792,0.792 0 0 0 -0.8,-0.5 0.875,0.875 0 0 0 -0.9,0.6 10.973,10.973 0 0 0 -0.2,2.4 v 11.5 a 9.211,9.211 0 0 0 0.2,2.3 c 0.1,0.4 0.4,0.5 0.8,0.5 a 0.792,0.792 0 0 0 0.8,-0.5 11.848,11.848 0 0 0 0.2,-2.6 v -3.1 h 5.5 v 1 a 21.031,21.031 0 0 1 -0.5,5.4 5.121,5.121 0 0 1 -2.1,2.8 6.452,6.452 0 0 1 -3.9,1.2 6.99,6.99 0 0 1 -4,-1 4.909,4.909 0 0 1 -2.1,-2.8 23.4,23.4 0 0 1 -0.5,-5.4 v -7.2 a 35.913,35.913 0 0 1 0.2,-4 6.738,6.738 0 0 1 0.9,-2.6 4.588,4.588 0 0 1 2.2,-1.9 6.565,6.565 0 0 1 3.2,-0.7 7,7 0 0 1 4,1.1 4.605,4.605 0 0 1 2.1,2.7 20.53,20.53 0 0 1 0.5,5.1 v 2.3 z"
           style="stroke-width:0.626874;fill:#000000;fill-opacity:1" /><path
           id="Tracé_286"
           data-name="Tracé 286"
           class="cls-1"
           d="M 82.3,54.7 V 79.4 H 76.8 V 69.1 H 75.2 V 79.4 H 69.7 V 54.7 h 5.5 v 8.8 h 1.6 v -8.8 z"
           style="stroke-width:0.626874;fill:#000000;fill-opacity:1" /><path
           id="Tracé_287"
           data-name="Tracé 287"
           class="cls-1"
           d="m 97.4,54.7 3.2,24.7 H 95 L 94.7,75 h -2 l -0.3,4.4 H 86.7 L 89.5,54.7 Z M 94.5,70.6 C 94.2,67.8 94,64.4 93.7,60.2 c -0.5,4.7 -0.9,8.2 -1,10.4 z"
           style="stroke-width:0.626874;fill:#000000;fill-opacity:1" /><path
           id="Tracé_288"
           data-name="Tracé 288"
           class="cls-1"
           d="m 114.6,54.7 v 4.9 h -3.3 v 19.7 h -5.5 V 59.7 h -3.2 v -4.9 h 12 z"
           style="stroke-width:0.626874;fill:#000000;fill-opacity:1" /><path
           id="Tracé_289"
           data-name="Tracé 289"
           class="cls-1"
           d="m 119.3,54.7 h 9.2 v 4.9 h -3.7 v 4.7 h 3.4 V 69 h -3.4 v 5.4 h 4 v 4.9 h -9.6 V 54.7 Z"
           style="stroke-width:0.626874;fill:#000000;fill-opacity:1" /><path
           id="Tracé_290"
           data-name="Tracé 290"
           class="cls-1"
           d="m 139.4,54.7 v 19.7 h 3.3 v 4.9 h -8.9 V 54.7 Z"
           style="stroke-width:0.626874;fill:#000000;fill-opacity:1" /></g><rect
         id="Rectangle_350"
         data-name="Rectangle 350"
         class="cls-1"
         width="10.2"
         height="2.4000001"
         transform="rotate(-61.941,48.061648,-62.936997)"
         x="0"
         y="0"
         style="stroke-width:0.626874;fill:#000000;fill-opacity:1" /></g></g></svg>
